<svg width="331" height="116" viewBox="0 0 331 116" fill="none" xmlns="http://www.w3.org/2000/svg">
<g filter="url(#filter0_i_6_7901)">
<path d="M256.029 43.5471C256.029 50.7055 250.176 55.279 246.109 55.279C245.414 55.279 244.918 55.1795 244.422 54.1853C243.728 52.5946 242.24 50.0096 238.47 50.0096C230.733 50.0096 224.781 60.6478 216.547 70.9877C222.598 75.2629 229.443 77.9473 236.09 77.9473C242.141 77.9473 246.803 74.9646 249.581 71.3854C250.275 70.3912 250.573 69.9935 251.267 69.9935C252.557 69.9935 253.053 71.1866 253.053 72.1808C253.053 77.0525 245.712 87.8896 228.65 87.8896C220.912 87.8896 213.273 85.5034 206.528 81.5265C200.377 86.4977 192.838 90.2757 183.116 90.2757C168.236 90.2757 155.142 81.8248 155.142 66.116C155.142 50.4073 167.839 42.8511 179.446 37.5817C179.347 36.5875 179.347 35.5933 179.347 34.5991C179.347 17.2001 189.068 0 206.429 0C216.349 0 221.805 5.56767 221.805 13.1238C221.805 23.6626 210.893 30.9204 194.425 37.6812C197.004 48.9159 203.75 59.753 212.182 67.4085C222.896 52.694 228.649 32.2129 243.827 32.2129C251.168 32.2129 256.128 37.0846 256.128 43.6465L256.029 43.5471ZM190.259 81.1288C194.326 81.1288 198.096 79.9358 201.468 77.9473C190.953 69.7947 183.116 57.7645 180.438 44.6407C175.18 48.9159 171.609 55.1795 171.609 62.4374C171.609 73.871 180.14 81.1288 190.259 81.1288ZM203.849 6.86016C198.492 6.86016 193.334 15.9076 193.334 27.6395C193.334 28.8326 193.334 30.0256 193.433 31.2187C201.568 27.0429 208.512 21.7736 208.512 13.8197C208.512 9.74342 206.726 6.86016 203.75 6.86016H203.849Z" fill="#EBEBEB"/>
<path d="M222.104 65.949C222.104 59.9728 217.654 58 214.244 58C210.545 58 207.944 60.3209 207.944 61.8875C207.944 62.2356 208.291 62.4677 208.869 62.5838C210.892 63.0479 213.319 65.3108 213.319 69.1983C213.319 76.161 208.407 82.7755 203.321 92.8713C200.315 85.5606 195.75 77.4374 193.843 70.6488C194.478 68.6181 194.883 66.8194 194.883 65.5429C194.883 61.9455 193.265 60.727 190.78 60.727C188.005 60.727 185.578 64.1504 185.578 68.386C185.578 70.8229 185.983 73.3759 186.618 75.9869C183.902 87.9395 176.158 110.162 165.813 110.162C163.385 110.162 161.594 108.885 161.594 106.565C161.594 103.722 163.674 103.199 163.674 102.329C163.674 100.472 161.478 98.9057 158.704 98.9057C155.352 98.9057 152 101.749 152 106.333C152 111.322 155.699 115.442 163.27 115.442C177.025 115.442 184.885 96.7008 188.872 82.6594C191.935 90.7245 196.039 98.6155 196.559 103.954C196.212 105.23 196.097 106.391 196.097 107.377C196.097 110.22 197.252 112.019 199.68 112.019C203.263 112.019 206.268 108.421 206.268 103.954C206.268 101.981 205.864 99.834 205.112 97.5711C211.816 82.5434 222.161 73.8981 222.161 65.891L222.104 65.949Z" fill="#8B8B8B"/>
<path d="M322.087 103.779C321.335 103.779 320.469 105.636 318.504 105.636C317.232 105.636 315.961 104.302 315.961 100.646V100.298C324.745 89.5641 330.987 73.1438 330.987 67.3415C330.987 63.164 329.138 60.9591 326.768 60.9591C320.642 60.9591 315.036 72.0994 311.395 84.7482C310.47 84.3421 309.546 84.11 308.332 84.11C301.165 84.11 294.404 91.5368 293.421 99.892C289.838 104.592 288.22 104.824 287.411 104.824C286.717 104.824 286.139 104.186 285.966 102.967C287.584 100.53 290.416 95.8885 290.416 92.059C290.416 90.3183 289.318 88.9838 287.873 88.9838C287.584 88.9838 287.295 89.0419 287.295 89.0419C287.295 89.0419 287.353 88.8098 287.353 88.5777C287.353 86.3728 284.694 84.11 281.053 84.11C273.598 84.11 266.547 91.5948 265.391 99.834C261.75 104.592 260.19 104.766 259.323 104.766C258.687 104.766 258.167 104.128 258.167 103.083C258.167 99.892 262.675 94.4959 262.675 88.9838C262.675 85.4445 260.363 84.11 258.456 84.11C252.272 84.11 245.626 95.1342 242.331 102.735C243.141 96.0045 245.857 92.5812 245.857 90.4344C245.857 88.4036 244.181 86.5469 242.1 86.5469C239.442 86.5469 237.881 89.39 236.552 95.8885C236.321 96.8749 236.205 97.8612 236.032 98.7896C231.582 104.65 227.305 105.52 225.109 105.52C221.988 105.52 220.601 103.315 220.197 100.356C228.519 99.3118 233.894 94.728 233.894 89.9702C233.894 86.837 231.408 84.11 227.016 84.11C219.33 84.11 212.163 92.6973 212.163 101.11C212.163 107.783 217.133 111.032 221.873 111.032C225.687 111.032 230.888 109.408 235.57 103.489C235.57 105.114 235.801 106.797 236.09 107.551C236.899 109.64 238.286 111.032 240.713 111.032C243.025 111.032 243.43 108.247 244.932 104.128C247.36 97.6291 251.578 91.6529 253.254 91.6529C253.659 91.6529 253.948 92.001 253.948 92.4652C253.948 94.9601 250.365 100.066 250.365 104.882C250.365 108.479 252.792 111.032 256.029 111.032C258.687 111.032 261.692 109.582 265.333 104.36C266.142 108.653 269.263 111.032 273.078 111.032C275.389 111.032 277.701 110.336 280.129 108.131C281.053 109.814 282.556 110.8 284.636 110.8C287.179 110.8 289.896 109.524 293.421 104.418C294.288 108.711 297.409 111.09 301.339 111.09C303.997 111.09 306.829 110.046 309.546 107.145C310.586 109.582 312.377 111.09 315.094 111.09C320.411 111.09 322.78 106.681 322.78 104.882C322.78 104.244 322.549 103.838 322.087 103.838V103.779ZM325.786 70.2427C326.479 70.2427 326.768 70.8229 326.768 71.6352C326.768 75.0585 322.26 86.3728 316.423 95.2502C318.099 84.7482 323.589 70.2427 325.786 70.2427ZM226.207 87.4172C226.901 87.4172 227.652 88.0555 227.652 89.506C227.652 93.1034 223.895 96.4687 219.965 97.5131C220.37 92.5812 223.722 87.4172 226.207 87.4172ZM279.204 103.605V104.418C278.51 105.114 277.586 105.578 276.43 105.578C274.234 105.578 272.673 103.547 272.673 99.95C272.673 92.9293 276.892 87.8814 279.551 87.8814C280.706 87.8814 281.342 88.6357 281.342 89.9122C281.342 91.0146 280.764 91.3627 280.764 92.001C280.764 92.4071 281.458 92.6973 282.209 92.8133C280.36 95.8304 279.146 99.892 279.146 103.547L279.204 103.605ZM309.199 93.0454C308.621 95.7144 308.447 98.6155 308.447 100.298C308.447 101.401 308.505 102.503 308.679 103.547C307.581 104.592 306.02 105.578 304.286 105.578C302.264 105.578 300.761 103.489 300.761 99.95C300.761 92.9293 304.691 87.8814 307.349 87.8814C308.505 87.8814 309.141 88.6357 309.141 89.9122C309.141 91.0146 308.563 91.3627 308.563 92.001C308.563 92.2911 308.852 92.4652 309.257 92.6392C309.257 92.7553 309.199 92.9293 309.199 93.0454Z" fill="#8B8B8B"/>
<path d="M56.2422 27.4544C62.4227 24.4313 66.3782 19.434 66.3782 14.0665C66.3782 7.52682 59.6415 0 42.5216 0C20.3337 0 5.68603 11.7838 5.68603 23.9995C5.68603 30.9093 10.5686 34.7961 16.6254 34.7961C23.733 34.7961 27.4413 29.552 27.4413 25.912C27.4413 24.8015 27.0704 24.3696 26.576 24.3696C26.267 24.3696 26.1434 24.493 25.8343 24.7398C25.2163 25.1717 23.1149 26.4673 20.5809 26.4673C17.3671 26.4673 15.3894 23.8144 15.3894 20.4211C15.3894 11.8455 25.8343 4.07189 41.2855 4.07189C50.9888 4.07189 57.3547 8.14378 57.3547 14.8686C57.3547 19.8042 54.3881 23.3208 50.8034 25.3568C49.5673 24.9866 48.084 24.8632 46.8479 24.8632C43.7577 24.8632 42.398 26.2205 42.398 27.7012C42.398 29.1819 43.7577 30.2924 46.4771 30.2924C47.5896 30.2924 48.8257 30.169 50.1854 29.7988C53.5228 31.2795 56.613 34.3643 56.613 39.1765C56.613 45.4077 52.1013 50.0966 44.9938 50.0966C40.6056 50.0966 36.5265 48.4925 32.5092 46.3949C38.8133 36.5236 40.9147 22.3337 45.3646 13.6964C47.2187 10.118 48.4548 9.31599 48.4548 8.57564C48.4548 7.95869 47.6514 7.71191 46.3535 7.71191C45.241 7.71191 44.2521 7.95869 42.707 8.69903C31.953 13.9431 29.0482 30.971 24.4746 42.323C20.7664 40.5955 16.7491 39.2382 12.2991 39.2382C4.94437 39.2382 0 43.0016 0 48.4308C0 53.86 4.57354 57.4383 13.1644 57.4383C20.2101 57.4383 25.1545 54.9088 29.0482 51.022C34.1162 54.3535 39.8022 57.6851 47.5896 57.6851C58.7762 57.6851 66.44 51.0837 66.44 42.323C66.44 35.9067 61.9901 30.4158 56.1186 27.7012L56.2422 27.4544ZM14.0297 52.8112C10.6922 52.8112 8.40543 50.8986 8.40543 48.3074C8.40543 45.7162 10.5068 43.8036 14.3387 43.8036C17.2435 43.8036 19.9011 44.9142 22.5587 46.5182C20.3955 50.2817 17.7997 52.8112 14.0297 52.8112Z" fill="#8B8B8B"/>
<path d="M219.097 44.2972C217.923 44.2972 216.811 47.1352 214.524 47.1352C213.473 47.1352 212.608 46.5182 212.361 44.544C213.968 42.0145 217.058 37.0172 217.058 33.3155C217.058 31.0944 215.945 29.8605 214.091 29.8605H213.72C213.72 29.8605 213.782 29.552 213.782 29.4287C213.782 27.0842 210.939 24.6781 207.045 24.6781C199.073 24.6781 191.532 32.5751 190.296 41.3975C188.257 43.9887 186.155 45.8396 183.807 45.8396C181.706 45.8396 180.222 43.4952 179.79 40.3487C186.464 38.2511 189.987 33.6856 189.987 30.2307C189.987 26.7758 188.071 24.6781 184.363 24.6781C177.688 24.6781 170.643 34.6111 166.378 42.8165C166.687 40.2253 167.243 37.5107 167.923 34.7345C176.576 27.5778 184.734 15.7323 184.734 7.52683C184.734 3.08478 182.88 0.0617065 179.233 0.0617065C170.581 0.0617065 162.175 21.5317 159.147 37.0789C158.961 37.9426 158.838 38.8063 158.714 39.6084C153.832 46.4566 151.916 46.7033 150.865 46.7033C150.185 46.7033 149.629 46.0247 149.629 44.9142C149.629 41.5209 154.45 35.7833 154.45 29.9222C154.45 26.1588 151.978 24.7398 149.938 24.7398C143.325 24.7398 136.217 36.4619 132.694 44.544C133.56 37.3873 136.465 33.7473 136.465 31.4646C136.465 29.3053 134.672 27.331 132.447 27.331C129.604 27.331 127.936 30.3541 126.514 37.264C126.267 38.3745 126.081 39.4233 125.958 40.4104C121.508 46.4566 119.654 46.8267 118.665 46.8267C117.923 46.8267 117.305 46.1481 117.12 44.8525C118.85 42.2613 121.879 37.3256 121.879 33.2538C121.879 31.4029 120.704 29.9839 119.159 29.9839C118.85 29.9839 118.541 30.0456 118.541 30.0456C118.541 30.0456 118.603 29.7988 118.603 29.552C118.603 27.2076 115.76 24.8015 111.866 24.8015C103.894 24.8015 96.3534 32.7602 95.1173 41.5209C91.2236 46.5799 89.5548 46.765 88.6278 46.765C87.7007 46.765 86.8972 46.0864 86.8972 44.6674C86.8972 40.9657 89.3694 36.8938 91.0382 34.1792C91.9034 32.7602 92.5215 31.6497 92.5215 30.5392C92.5215 28.6883 90.7909 27.1459 89.6166 27.1459C89.184 27.1459 88.566 27.3927 87.8243 27.948C86.65 28.8117 83.8688 29.552 81.7675 29.552H81.0876C81.3966 28.1331 81.5202 26.8992 81.5202 25.7269C81.5202 23.0123 80.1605 21.2849 78.3064 21.2849C75.8342 21.2849 74.1037 23.7527 74.1037 26.7141C74.1037 29.0585 75.278 31.0327 77.0085 32.5751C75.4634 37.1406 70.7044 44.4206 66.9962 46.9501C66.6253 47.1969 66.3781 47.5671 66.3781 47.8138C66.3781 49.603 68.1086 51.0837 69.8392 51.0837C70.7044 51.0837 71.2607 50.9603 71.8169 50.4667C73.3002 49.2945 77.3793 41.6443 79.7279 34.426C80.9022 35.0429 82.2001 35.5365 83.498 35.845C81.1494 38.7446 78.0592 43.4952 78.0592 47.0118C78.0592 50.8369 80.7786 53.4281 84.4869 53.4281C87.6389 53.4281 90.9145 51.8857 94.87 46.3332C95.7353 50.8986 99.0728 53.4281 103.152 53.4281C105.624 53.4281 108.096 52.6878 110.692 50.3434C111.681 52.1325 113.288 53.1813 115.513 53.1813C118.356 53.1813 121.261 51.7623 125.278 45.8396C125.34 47.4437 125.525 48.9861 125.834 49.7881C126.699 52.0091 128.183 53.4898 130.779 53.4898C133.251 53.4898 133.683 50.5284 135.29 46.1481C137.886 39.2382 142.398 32.8836 144.19 32.8836C144.623 32.8836 144.932 33.2538 144.932 33.7473C144.932 36.4002 141.1 41.8294 141.1 46.9501C141.1 50.7752 143.696 53.4898 147.157 53.4898C150.247 53.4898 153.708 51.7006 158.096 44.9759C158.096 46.8267 158.343 48.8627 158.652 49.7881C159.518 52.0091 161.001 53.4898 163.597 53.4898C166.069 53.4898 166.502 50.5284 168.109 46.1481C171.075 38.3128 177.07 31.4029 180.037 31.4029C181.088 31.4029 181.582 32.0816 181.582 32.8219C181.582 34.7345 179.11 37.1406 175.587 38.868C173.238 40.0402 171.261 41.3358 171.261 44.6674C171.261 48.7393 174.289 53.4898 179.481 53.4898C183.003 53.4898 186.032 51.9474 189.926 46.3949C190.791 50.8986 194.128 53.4898 198.207 53.4898C200.68 53.4898 203.152 52.7495 205.748 50.2817C206.798 52.0708 208.467 52.9346 210.63 52.9346C215.822 52.9346 219.468 47.7522 219.468 45.5311C219.468 44.9142 219.221 44.4823 218.727 44.4823L219.097 44.2972ZM178.677 10.735C179.419 10.735 179.481 11.4136 179.481 11.9072C179.481 16.1025 175.154 23.5059 169.221 30.0456C172.249 19.7425 176.699 10.735 178.615 10.735H178.677ZM109.95 45.346V46.2098C109.209 46.9501 108.22 47.4437 106.984 47.4437C104.635 47.4437 102.966 45.2843 102.966 41.4592C102.966 33.9941 107.478 28.6266 110.321 28.6266C111.557 28.6266 112.237 29.4287 112.237 30.786C112.237 31.9582 111.619 32.3283 111.619 33.007C111.619 33.4388 112.361 33.7473 113.164 33.8707C111.186 37.0789 109.889 41.3975 109.889 45.2843L109.95 45.346ZM205.129 45.346V46.2098C204.388 46.9501 203.399 47.4437 202.163 47.4437C199.814 47.4437 198.146 45.2843 198.146 41.4592C198.146 33.9941 202.657 28.6266 205.5 28.6266C206.736 28.6266 207.416 29.4287 207.416 30.786C207.416 31.9582 206.798 32.3283 206.798 33.007C206.798 33.5005 207.602 33.809 208.405 33.9941C206.304 37.2023 205.068 41.706 205.068 45.2843L205.129 45.346Z" fill="#8B8B8B"/>
</g>
<defs>
<filter id="filter0_i_6_7901" x="0" y="0" width="330.987" height="119.442" filterUnits="userSpaceOnUse" color-interpolation-filters="sRGB">
<feFlood flood-opacity="0" result="BackgroundImageFix"/>
<feBlend mode="normal" in="SourceGraphic" in2="BackgroundImageFix" result="shape"/>
<feColorMatrix in="SourceAlpha" type="matrix" values="0 0 0 0 0 0 0 0 0 0 0 0 0 0 0 0 0 0 127 0" result="hardAlpha"/>
<feOffset dy="4"/>
<feGaussianBlur stdDeviation="2"/>
<feComposite in2="hardAlpha" operator="arithmetic" k2="-1" k3="1"/>
<feColorMatrix type="matrix" values="0 0 0 0 0 0 0 0 0 0 0 0 0 0 0 0 0 0 0.25 0"/>
<feBlend mode="normal" in2="shape" result="effect1_innerShadow_6_7901"/>
</filter>
</defs>
</svg>
