<svg width="410" height="40" viewBox="0 0 410 40" fill="none" xmlns="http://www.w3.org/2000/svg">
<path d="M22.6114 4.49383C23.32 4.10865 24.093 3.98025 24.5762 3.98025C25.1237 3.98025 25.5747 4.14075 25.5747 4.42964C25.5747 4.84692 25.1237 4.87902 23.9642 7.09383C22.5791 9.72593 21.7095 13.4815 20.5499 17.1728C27.1852 16.7877 30.9859 13.4494 30.9859 9.01976C30.9859 4.81482 27.314 2.08643 21.2908 2.08643C13.7214 2.11852 8.37458 6.41976 8.37458 10.8494C8.37458 12.7111 9.34088 13.7704 11.0158 13.7704C12.3364 13.7704 13.4637 13.1284 13.7536 12.8716C13.9147 12.7432 13.9791 12.679 14.1402 12.679C14.3978 12.679 14.5911 12.9037 14.5911 13.4815C14.5911 15.3753 12.6585 18.1037 8.92215 18.1037C5.79778 18.1037 3.2532 16.1457 3.2532 12.4543C3.2532 6.19507 10.5971 0.0321045 21.8705 0.0321045C30.1807 0.0321045 36.3972 3.65926 36.3972 9.24445C36.3972 14.1877 31.6301 19.2593 19.8735 19.2914C17.8121 25.0691 14.6233 30.237 7.05397 30.237C2.80226 30.237 0 27.7333 0 24.9728C0 22.437 1.80376 21.0889 3.67193 21.0889C5.21801 21.0889 6.5064 22.3086 6.5064 23.3679C6.5064 23.8815 5.21801 24.1383 5.21801 25.8395C5.21801 27.1556 6.37756 27.9901 7.73038 27.9901C15.4286 27.9901 13.6248 9.40494 22.6436 4.55803L22.6114 4.49383Z" fill="#BB8BCA"/>
<path d="M46.7366 20.479C45.8025 24.2988 42.8392 27.7654 38.7485 27.7654C35.3987 27.7654 33.5627 25.4222 33.5627 22.5012C33.5627 18.4889 36.977 15.1185 39.1673 14.3161C39.7148 12.9358 41.0999 12.037 42.5815 12.037C44.9651 12.037 47.0587 14.284 47.0587 18.0395C47.0587 18.3605 47.0265 18.6494 47.0265 18.9704C49.3778 18.4568 50.9239 17.0766 51.3748 16.6593C51.6325 16.4346 51.7936 16.3383 51.9868 16.3383C52.1801 16.3383 52.4055 16.4988 52.4055 16.7877C52.4055 16.9482 52.3411 17.2049 52.0834 17.5259C51.3104 18.6494 49.1846 19.9975 46.7044 20.479H46.7366ZM43.9988 20.6395C41.422 20.3185 39.5538 18.7457 39.0384 16.8519C38.2332 17.9432 37.6212 19.6124 37.6212 21.2815C37.6212 23.2716 38.5553 24.9408 40.2624 24.9408C42.1628 24.9408 43.5478 22.9827 43.9988 20.6395ZM44.192 19.0025V18.8099C44.192 16.8198 43.4512 15.6642 42.5815 15.6642C42.0662 15.6642 41.6152 16.0494 41.6152 16.7877C41.6152 17.879 42.5815 18.7457 44.192 19.0346V19.0025Z" fill="#BB8BCA"/>
<path d="M58.1711 13.1926C60.2325 6.19507 63.3569 0.0321045 66.7389 0.0321045C68.0595 0.0321045 69.0903 1.25186 69.0903 3.56297C69.0903 6.80494 65.6116 15.8889 60.7157 21.7951V21.9877C60.7157 23.6889 61.1666 24.6198 62.0363 24.6198C62.7771 24.6198 64.1621 24.1704 66.8034 20.4148C66.9644 20.1901 67.1899 20.0617 67.3831 20.0617C67.6408 20.0617 67.8985 20.2864 67.8985 20.6395C67.8985 20.8321 67.8663 21.0247 67.7052 21.2815C66.288 23.8494 64.9674 25.4543 63.679 26.4173C62.3906 27.4124 61.1988 27.7333 60.1359 27.7333C58.8153 27.7333 57.7524 26.8988 57.2048 25.5506C55.6909 27.1556 54.1127 27.7333 52.631 27.7333C50.0542 27.7333 48.0572 25.9358 48.0572 22.6938C48.0572 17.6543 52.1479 12.8395 56.464 12.8395C57.1082 12.8395 57.6557 12.9679 58.1711 13.1926ZM56.6572 23.6247C56.5928 23.0469 56.5284 22.437 56.5284 21.8272C56.5284 20.8963 56.6572 19.2914 56.9471 17.8148C56.9471 17.7506 56.9793 17.6543 56.9793 17.5901C56.7539 17.5259 56.5928 17.3975 56.5928 17.237C56.5928 16.884 56.9149 16.6914 56.9149 16.0815C56.9149 15.3753 56.5606 14.958 55.9164 14.958C54.4348 14.958 52.2445 17.7185 52.2445 21.6346C52.2445 23.5926 53.0819 24.7482 54.2093 24.7482C55.1756 24.7482 56.013 24.2025 56.6572 23.6247ZM61.0056 19.0025C64.2588 14.1235 66.7711 7.83211 66.7711 5.93828C66.7711 5.48889 66.6101 5.16791 66.2236 5.16791C64.9996 5.16791 61.9397 13.1605 61.0056 19.0025Z" fill="#BB8BCA"/>
<path d="M79.3652 20.4469C79.5262 20.2222 79.7517 20.0938 79.945 20.0938C80.2027 20.0938 80.4603 20.3185 80.4603 20.6716C80.4603 20.8642 80.4281 21.0568 80.2671 21.3136C77.3682 26.5136 73.664 27.7333 71.1195 27.7333C68.5749 27.7333 65.7082 25.9358 65.7082 22.2444C65.7082 17.5901 69.7022 12.8395 73.9861 12.8395C76.4341 12.8395 77.8191 14.3481 77.8191 16.0815C77.8191 18.7136 74.7914 21.2494 70.1854 21.8271C70.4108 23.4321 71.1839 24.6839 72.9232 24.6839C74.2116 24.6839 76.7884 24.1703 79.3974 20.4469H79.3652ZM70.0565 20.2864C72.2468 19.7086 74.3404 17.8469 74.3404 15.8568C74.3404 15.0543 73.9217 14.7012 73.5352 14.7012C72.1502 14.7012 70.282 17.558 70.0565 20.2864Z" fill="#BB8BCA"/>
<path d="M84.0679 18.1358C83.7136 19.7086 83.4881 21.2173 83.4881 22.4049C83.4881 23.7852 83.8424 24.6519 84.6798 24.6519C85.4207 24.6519 86.8057 24.2025 89.4469 20.4469C89.608 20.2222 89.8334 20.0938 90.0267 20.0938C90.2844 20.0938 90.5421 20.3185 90.5421 20.6716C90.5421 20.8642 90.5098 21.0568 90.3488 21.3136C87.4499 26.5136 84.9697 27.7333 82.6184 27.7333C80.4281 27.7333 78.9787 26.1284 78.9787 22.7901C78.9787 17.237 84.4866 0 89.7046 0C91.605 0 92.4102 1.34815 92.4102 3.85185C92.4102 7.51111 89.4791 13.5136 84.0679 18.1037V18.1358ZM84.7765 15.6C88.5128 11.4914 90.0267 7.54321 90.0267 6.25926C90.0267 5.87407 89.8979 5.64938 89.608 5.64938C88.6739 5.64938 86.2903 10.6568 84.7765 15.6321V15.6Z" fill="#BB8BCA"/>
<path d="M95.599 15.1506C95.599 15.8568 95.2447 16.242 94.6649 17.3012C93.5054 19.4839 92.9578 21.5062 92.9578 22.7901C92.9578 23.9457 93.4732 24.3629 93.9885 24.3629C94.7293 24.3629 95.8889 24.1383 98.4979 20.3827C98.659 20.158 98.8844 20.0296 99.0777 20.0296C99.3354 20.0296 99.593 20.2543 99.593 20.6074C99.593 20.8 99.5608 20.9926 99.3998 21.2494C96.5009 26.4494 93.9241 27.6691 91.8949 27.6691C89.608 27.6691 88.545 25.7111 88.545 23.3037C88.545 21.5383 89.0926 19.0666 89.8656 17.1407C90.8319 14.7654 91.9593 12.7432 93.3765 12.7432C94.7938 12.7432 95.5668 13.7704 95.5668 15.0543L95.599 15.1506ZM93.3121 8.47405C93.3121 6.74072 94.826 5.36047 96.6297 5.36047C98.4335 5.36047 99.2065 6.67652 99.2065 7.79998C99.2065 9.53331 97.596 10.721 95.7601 10.721C94.375 10.721 93.2799 9.7901 93.2799 8.47405H93.3121Z" fill="#BB8BCA"/>
<path d="M106.357 9.50124C105.648 10.6889 104.843 12.358 104.167 14.2519C104.908 14.0593 105.552 13.8667 106.132 13.6099C107.839 12.8074 108 12.1333 108.322 12.1333C108.741 12.1333 109.288 12.6469 109.288 13.6741C109.288 15.4716 107.903 17.1728 103.168 17.3333C102.782 18.8741 102.524 20.479 102.524 22.0198C102.524 23.721 102.975 24.6519 103.845 24.6519C104.586 24.6519 105.971 24.2025 108.612 20.4469C108.773 20.2222 108.998 20.0938 109.192 20.0938C109.449 20.0938 109.707 20.3185 109.707 20.6716C109.707 20.8642 109.675 21.0568 109.514 21.3136C106.615 26.5136 104.135 27.7333 101.783 27.7333C99.432 27.7333 98.1758 25.8074 98.1758 23.1111C98.1758 22.1803 98.3046 20.7358 98.5945 19.2593C98.7556 18.521 98.9488 17.6864 99.1743 16.8198C98.2402 16.4025 97.596 15.6321 97.596 14.8296C97.596 14.5728 97.7248 14.3161 97.9181 14.3161C98.1758 14.3161 98.6267 14.6691 99.7219 14.6691H99.7863C100.495 12.4222 101.332 10.2074 102.266 8.44198C103.49 6.09877 104.521 4.81482 105.874 4.81482C106.776 4.81482 107.968 5.52099 107.968 6.77284C107.968 7.22223 107.066 8.24939 106.389 9.46914L106.357 9.50124Z" fill="#BB8BCA"/>
<path d="M107.678 22.2444C107.678 17.5901 111.672 12.8395 115.956 12.8395C118.404 12.8395 119.789 14.3481 119.789 16.0815C119.789 18.7136 116.761 21.2494 112.155 21.8271C112.477 23.4 113.443 24.5555 115.247 24.5555C116.858 24.5555 118.017 23.7531 118.79 23.0148C119.402 22.437 119.756 21.8271 120.079 21.8271C120.336 21.8271 120.594 22.0518 120.594 22.4049C120.594 23.8815 117.953 27.7654 113.153 27.7654C110.512 27.7654 107.742 25.9679 107.742 22.2765L107.678 22.2444ZM112.058 20.2864C114.249 19.7086 116.342 17.8469 116.342 15.8568C116.342 15.0543 115.923 14.7012 115.537 14.7012C114.152 14.7012 112.284 17.558 112.058 20.2864Z" fill="#BB8BCA"/>
<path d="M133.574 19.1309C132.834 17.558 131.996 15.9852 131.996 14.637C131.996 12.9037 133.349 10.9136 135.282 10.9136C136.602 10.9136 137.085 11.8444 137.085 12.8395C137.085 13.8346 136.538 15.1506 135.668 16.1136C136.183 16.916 136.828 17.6543 137.375 18.4247C140.21 17.8469 142.271 15.2148 142.819 14.7654C143.076 14.5407 143.237 14.4444 143.431 14.4444C143.785 14.4444 144.075 14.7975 144.075 15.2469C144.075 15.4395 143.946 15.7605 143.849 15.8889C143.076 17.0123 140.725 19.0346 138.213 19.8049C138.535 20.4469 138.728 21.1852 138.728 22.0518C138.728 25.1654 136.087 27.7975 132.286 27.7975C129.065 27.7975 127.583 26 127.583 24.0741C127.583 21.5704 130.096 19.5802 133.607 19.1309H133.574ZM134.251 20.8321C132.061 21.2173 130.933 22.5975 130.933 23.9457C130.933 24.9407 131.545 25.7111 132.479 25.7111C133.671 25.7111 134.637 24.5235 134.637 22.8222C134.637 22.1802 134.476 21.4741 134.251 20.8321Z" fill="#BB8BCA"/>
<path d="M150.742 18.4568C150.742 16.7234 150.13 15.4074 148.971 15.1827C148.745 15.1506 148.552 14.9901 148.552 14.6049C148.552 13.6098 149.679 12.1654 151.29 12.1654C153.48 12.1654 154.511 13.9308 154.511 16.2098C154.511 21.0247 148.745 27.7975 144.655 27.7975C141.756 27.7975 140.628 24.4913 140.628 21.795C140.628 17.5259 141.82 12.7432 144.3 12.7432C145.621 12.7432 146.62 13.5457 146.62 14.8296C146.62 15.5358 146.394 16.0494 146.072 16.916C145.524 18.3284 145.073 20.0617 145.073 21.9234C145.073 23.9136 145.621 25.0049 146.426 25.0049C148.198 25.0049 150.742 21.5703 150.742 18.4568Z" fill="#BB8BCA"/>
<path d="M168.039 19.6766C167.395 23.7852 164.238 27.7654 159.89 27.7654C156.54 27.7654 154.704 25.4222 154.704 22.5012C154.704 18.4889 158.118 15.1185 160.309 14.3161C160.856 12.9358 162.241 12.037 163.723 12.037C166.074 12.037 168.168 14.2198 168.2 17.9753C170.294 17.0124 171.808 15.1506 172.226 14.7654C172.484 14.5408 172.645 14.4445 172.838 14.4445C173.193 14.4445 173.483 14.7975 173.483 15.2469C173.483 15.4395 173.354 15.7605 173.257 15.8889C172.516 16.9803 170.39 18.8099 168.039 19.6766ZM165.269 20.0938C162.499 19.9333 160.695 18.7136 160.212 16.8519C159.407 17.9432 158.795 19.6124 158.795 21.2815C158.795 23.2716 159.729 24.9408 161.436 24.9408C163.433 24.9408 164.915 22.6617 165.301 20.0938H165.269ZM165.366 18.521C165.301 16.7235 164.625 15.6321 163.787 15.6321C163.272 15.6321 162.821 15.9531 162.821 16.6593C162.821 17.558 163.755 18.3926 165.366 18.521Z" fill="#BB8BCA"/>
<path d="M173.418 27.958C172.516 33.3506 170.938 39.0321 165.784 39.0321C163.626 39.0321 161.662 37.4271 161.662 35.3407C161.662 31.4889 165.495 29.6913 169.489 27.9901C169.714 26.1926 169.843 23.9778 170.004 22.6938C170.551 18.3284 171.937 12.8716 174.578 12.8716C176.188 12.8716 176.768 14.0913 176.768 15.1827C176.768 16.9481 175.061 17.237 173.837 25.5506C173.805 25.7432 173.772 25.9037 173.772 26.0963C175.641 24.9728 176.704 23.6568 178.99 20.479C179.152 20.2543 179.377 20.1259 179.57 20.1259C179.828 20.1259 180.086 20.3506 180.086 20.7037C180.086 20.8963 180.053 21.0889 179.892 21.3457C177.799 25.1333 176.188 26.5136 173.483 27.958H173.418ZM169.102 30.2691C166.944 31.5531 164.689 33.3506 164.689 35.437C164.689 36.3679 165.205 36.9136 165.688 36.9136C167.395 36.9136 168.393 33.8963 169.102 30.3012V30.2691ZM173.998 8.47405C173.998 6.74072 175.512 5.36047 177.316 5.36047C179.119 5.36047 179.892 6.67652 179.892 7.79998C179.892 9.53331 178.282 10.721 176.446 10.721C175.061 10.721 173.966 9.7901 173.966 8.47405H173.998Z" fill="#BB8BCA"/>
<path d="M190.328 15.5358H190.522C191.488 15.5358 192.068 16.1777 192.068 17.3333C192.068 19.2592 190.489 21.8913 189.62 23.1753C189.749 24.2024 190.2 24.5234 190.747 24.5234C191.939 24.5234 192.519 23.0469 193.131 23.0469C193.388 23.0469 193.517 23.2716 193.517 23.5926C193.517 24.7481 191.617 27.4444 188.911 27.4444C187.784 27.4444 186.914 26.995 186.367 26.0642C185.014 27.3481 183.693 27.7333 182.437 27.7333C179.957 27.7333 177.992 25.9358 177.992 22.758C177.992 17.7185 182.308 12.8395 186.85 12.8395C188.911 12.8395 190.361 14.0592 190.361 15.3111C190.361 15.3753 190.328 15.4716 190.328 15.5358ZM185.851 24.1061V23.6568C185.851 21.7629 186.495 19.4197 187.591 17.7827C187.172 17.7185 186.753 17.558 186.753 17.2691C186.753 16.916 187.075 16.7234 187.075 16.1136C187.075 15.4074 186.721 14.9901 186.077 14.9901C184.595 14.9901 182.244 17.7506 182.244 21.6666C182.244 23.6568 183.081 24.7802 184.337 24.7802C184.982 24.7802 185.497 24.5234 185.883 24.1382L185.851 24.1061Z" fill="#BB8BCA"/>
<path d="M213.745 21.7951C212.94 21.7951 212.038 21.7309 211.2 21.5704C211.233 21.7309 211.233 21.9235 211.233 22.084C211.233 25.1975 208.591 27.8296 204.791 27.8296C201.57 27.8296 200.088 26.0321 200.088 24.1062C200.088 21.6025 202.6 19.2593 206.111 19.163C205.37 17.5901 204.533 16.0173 204.533 14.6691C204.533 12.9358 205.886 10.9457 207.818 10.9457C209.139 10.9457 209.622 11.8765 209.622 12.8716C209.622 13.8667 209.075 15.1827 208.205 16.1457C208.978 17.3654 210.073 18.4568 210.717 19.7728C212.006 20.158 213.358 20.3185 214.55 20.3185C214.808 20.3185 215.388 20.3827 215.388 20.9605C215.388 21.763 214.389 21.8593 213.777 21.8593L213.745 21.7951ZM206.788 20.8963C204.501 21.0568 203.438 22.5975 203.438 23.9457C203.438 24.9407 204.05 25.7111 204.984 25.7111C206.176 25.7111 207.142 24.5235 207.142 22.8222C207.142 22.2123 206.981 21.5383 206.788 20.8963Z" fill="#BB8BCA"/>
<path d="M226.371 20.4469C226.532 20.2222 226.758 20.0938 226.951 20.0938C227.209 20.0938 227.466 20.3185 227.466 20.6716C227.466 20.8642 227.434 21.0568 227.273 21.3136C224.374 26.5136 220.67 27.7333 218.126 27.7333C215.581 27.7333 212.714 25.9358 212.714 22.2444C212.714 17.5901 216.708 12.8395 220.992 12.8395C223.44 12.8395 224.825 14.3481 224.825 16.0815C224.825 18.7136 221.797 21.2494 217.191 21.8271C217.417 23.4321 218.19 24.6839 219.929 24.6839C221.218 24.6839 223.794 24.1703 226.436 20.4469H226.371ZM217.063 20.2864C219.253 19.7086 221.347 17.8469 221.347 15.8568C221.347 15.0543 220.928 14.7012 220.541 14.7012C219.156 14.7012 217.288 17.558 217.063 20.2864Z" fill="#BB8BCA"/>
<path d="M239.448 20.4469C239.61 20.2223 239.835 20.0939 240.028 20.0939C240.286 20.0939 240.544 20.3185 240.544 20.6716C240.544 20.8642 240.511 21.0568 240.35 21.3136C237.451 26.5136 233.618 27.7334 231.074 27.7334C228.529 27.7334 225.598 25.9358 225.598 22.2445C225.598 17.5902 229.624 12.8395 233.908 12.8395C236.356 12.8395 238.096 14.5729 238.096 16.3062C238.096 18.3926 236.582 19.5482 235.197 19.5482C234.037 19.5482 233.071 18.6173 233.071 17.8469C233.071 17.4618 234.166 16.7556 234.166 15.5037C234.166 14.9902 233.844 14.7013 233.457 14.7013C231.976 14.7013 229.979 17.8469 229.979 20.8321C229.979 23.0148 231.106 24.6198 233.071 24.6198C234.295 24.6198 236.872 24.2025 239.481 20.4469H239.448ZM234.295 11.0741C233.941 11.0741 233.844 10.9136 233.844 10.721C233.844 10.4963 234.005 10.3358 234.263 9.95065C234.649 9.43707 235.583 8.02472 236.614 5.68151C237.065 4.68645 236.936 4.26917 237.516 4.26917C238.547 4.26917 239.61 5.42472 239.61 6.51608C239.61 8.5704 235.358 11.1062 234.327 11.1062L234.295 11.0741Z" fill="#BB8BCA"/>
<path d="M246.986 26.1284C245.633 27.3481 244.312 27.7333 243.056 27.7333C240.576 27.7333 238.611 25.9358 238.611 22.758C238.611 17.7185 242.927 12.8395 247.469 12.8395C249.53 12.8395 250.98 14.0592 250.98 15.3111C250.98 15.4716 250.947 15.5679 250.947 15.5679C250.947 15.5679 251.108 15.5358 251.27 15.5358C252.075 15.5358 252.687 16.274 252.687 17.237C252.687 19.3555 251.108 21.9234 250.207 23.2716C250.335 23.9777 250.625 24.2987 251.012 24.2987C251.559 24.2987 252.59 24.1382 255.231 20.4148C255.392 20.1901 255.618 20.0617 255.811 20.0617C256.069 20.0617 256.326 20.2864 256.326 20.6395C256.326 20.8321 256.294 21.0247 256.133 21.2815C253.234 26.4815 251.334 27.5728 249.53 27.5728C248.371 27.5728 247.533 27.0271 247.018 26.0963L246.986 26.1284ZM246.438 24.1061V23.6568C246.438 21.6666 247.082 19.3876 248.145 17.7185C247.726 17.6543 247.34 17.4938 247.34 17.2691C247.34 16.916 247.662 16.7234 247.662 16.1136C247.662 15.4074 247.308 14.9901 246.664 14.9901C245.182 14.9901 242.831 17.7506 242.831 21.6666C242.831 23.6568 243.668 24.7802 244.924 24.7802C245.568 24.7802 246.084 24.5234 246.47 24.1382L246.438 24.1061Z" fill="#BB8BCA"/>
<path d="M258.323 23.1753C260.192 18.9382 263.896 12.8716 267.31 12.8716C268.405 12.8716 269.661 13.6099 269.661 15.5679C269.661 18.6494 267.149 21.6024 267.149 23.3679C267.149 23.9457 267.471 24.2987 267.793 24.2987C268.341 24.2987 269.371 24.1703 272.013 20.4469C272.174 20.2222 272.399 20.0938 272.592 20.0938C272.85 20.0938 273.108 20.3185 273.108 20.6716C273.108 20.8642 273.076 21.0568 272.915 21.3136C270.016 26.5136 267.89 27.7333 265.989 27.7333C264.089 27.7333 262.833 26.3531 262.833 24.3308C262.833 21.6666 264.83 18.8741 264.83 17.4617C264.83 17.2049 264.669 17.0123 264.443 17.0123C263.509 17.0123 261.158 20.3185 259.805 23.9136C258.968 26.1926 258.71 27.7333 257.454 27.7333C256.101 27.7333 255.328 26.9629 254.877 25.8074C254.684 25.2938 254.555 24.1062 254.555 23.1111C254.555 22.1802 254.78 20.8 255.102 19.3234C255.843 15.7284 256.713 14.1555 258.195 14.1555C259.354 14.1555 260.288 15.1827 260.288 16.3062C260.288 17.4938 258.774 19.3876 258.323 23.1111V23.1753Z" fill="#BB8BCA"/>
<path d="M274.976 27.958C274.074 33.3506 272.496 39.0321 267.342 39.0321C265.184 39.0321 263.219 37.4271 263.219 35.3407C263.219 31.4889 267.052 29.6913 271.046 27.9901C271.272 26.1926 271.401 23.9778 271.562 22.6938C272.109 18.3284 273.494 12.8716 276.136 12.8716C277.746 12.8716 278.326 14.0913 278.326 15.1827C278.326 16.9481 276.619 17.237 275.395 25.5506C275.363 25.7432 275.33 25.9037 275.33 26.0963C277.199 24.9728 278.261 23.6568 280.548 20.479C280.709 20.2543 280.935 20.1259 281.128 20.1259C281.386 20.1259 281.643 20.3506 281.643 20.7037C281.643 20.8963 281.611 21.0889 281.45 21.3457C279.357 25.1333 277.746 26.5136 275.04 27.958H274.976ZM270.628 30.2691C268.47 31.5531 266.215 33.3506 266.215 35.437C266.215 36.3679 266.73 36.9136 267.213 36.9136C268.921 36.9136 269.919 33.8963 270.628 30.3012V30.2691ZM275.556 8.47405C275.556 6.74072 277.07 5.36047 278.873 5.36047C280.677 5.36047 281.45 6.67652 281.45 7.79998C281.45 9.53331 279.84 10.721 278.004 10.721C276.619 10.721 275.524 9.7901 275.524 8.47405H275.556Z" fill="#BB8BCA"/>
<path d="M291.854 15.5358H292.047C293.014 15.5358 293.593 16.1777 293.593 17.3333C293.593 19.2592 292.015 21.8913 291.145 23.1753C291.274 24.2024 291.725 24.5234 292.273 24.5234C293.464 24.5234 294.044 23.0469 294.656 23.0469C294.914 23.0469 295.043 23.2716 295.043 23.5926C295.043 24.7481 293.142 27.4444 290.437 27.4444C289.309 27.4444 288.44 26.995 287.892 26.0642C286.539 27.3481 285.219 27.7333 283.963 27.7333C281.482 27.7333 279.518 25.9358 279.518 22.758C279.518 17.7185 283.834 12.8395 288.375 12.8395C290.437 12.8395 291.886 14.0592 291.886 15.3111C291.886 15.3753 291.854 15.4716 291.854 15.5358ZM287.377 24.1061V23.6568C287.377 21.7629 288.021 19.4197 289.116 17.7827C288.697 17.7185 288.279 17.558 288.279 17.2691C288.279 16.916 288.601 16.7234 288.601 16.1136C288.601 15.4074 288.247 14.9901 287.602 14.9901C286.121 14.9901 283.769 17.7506 283.769 21.6666C283.769 23.6568 284.607 24.7802 285.863 24.7802C286.507 24.7802 287.023 24.5234 287.409 24.1382L287.377 24.1061Z" fill="#BB8BCA"/>
<path d="M307.572 19.1309C306.864 17.558 306.026 15.9852 306.026 14.637C306.026 12.9037 307.379 10.9136 309.312 10.9136C310.632 10.9136 311.116 11.8444 311.116 12.8395C311.116 13.8346 310.568 15.1506 309.698 16.1136C310.278 17.0444 311.051 17.879 311.663 18.8099C314.884 18.5531 316.559 17.4296 317.847 16.4667C318.105 16.2741 318.363 16.2099 318.556 16.2099C318.782 16.2099 318.975 16.3383 318.975 16.5951C318.975 16.7876 318.846 17.0444 318.62 17.3654C317.654 18.5852 315.077 19.9333 312.468 20.4469C312.629 20.9605 312.726 21.4741 312.726 22.116C312.726 25.2296 310.085 27.8617 306.284 27.8617C303.063 27.8617 301.581 26.0642 301.581 24.1383C301.581 21.6346 304.062 19.6444 307.572 19.1951V19.1309ZM308.281 20.8321C306.091 21.2173 304.963 22.5975 304.963 23.9457C304.963 24.9407 305.575 25.7111 306.51 25.7111C307.701 25.7111 308.668 24.5235 308.668 22.8222C308.668 22.1802 308.507 21.4741 308.281 20.8321Z" fill="#BB8BCA"/>
<path d="M326.48 15.5358H326.673C327.639 15.5358 328.219 16.1777 328.219 17.3333C328.219 19.2592 326.641 21.8913 325.771 23.1753C325.9 24.2024 326.351 24.5234 326.898 24.5234C328.09 24.5234 328.67 23.0469 329.282 23.0469C329.54 23.0469 329.668 23.2716 329.668 23.5926C329.668 24.7481 327.768 27.4444 325.062 27.4444C323.935 27.4444 323.065 26.995 322.518 26.0642C321.165 27.3481 319.844 27.7333 318.588 27.7333C316.108 27.7333 314.143 25.9358 314.143 22.758C314.143 17.7185 318.459 12.8395 323.001 12.8395C325.062 12.8395 326.512 14.0592 326.512 15.3111C326.512 15.3753 326.48 15.4716 326.48 15.5358ZM322.003 24.1061V23.6568C322.003 21.7629 322.647 19.4197 323.742 17.7827C323.323 17.7185 322.904 17.558 322.904 17.2691C322.904 16.916 323.226 16.7234 323.226 16.1136C323.226 15.4074 322.872 14.9901 322.228 14.9901C320.746 14.9901 318.395 17.7506 318.395 21.6666C318.395 23.6568 319.232 24.7802 320.489 24.7802C321.133 24.7802 321.648 24.5234 322.035 24.1382L322.003 24.1061Z" fill="#BB8BCA"/>
<path d="M341.844 23.1753C343.712 18.9382 347.416 12.8716 350.83 12.8716C351.926 12.8716 353.182 13.6099 353.182 15.5679C353.182 18.6494 350.669 21.6024 350.669 23.3679C350.669 23.9457 350.991 24.2987 351.314 24.2987C351.861 24.2987 352.892 24.1703 355.533 20.4469C355.694 20.2222 355.92 20.0938 356.113 20.0938C356.37 20.0938 356.628 20.3185 356.628 20.6716C356.628 20.8642 356.596 21.0568 356.435 21.3136C353.536 26.5136 351.41 27.7333 349.51 27.7333C347.609 27.7333 346.353 26.3531 346.353 24.3308C346.353 21.6666 348.35 18.8741 348.35 17.4617C348.35 17.2049 348.189 17.0123 347.964 17.0123C347.03 17.0123 344.678 20.3185 343.325 23.9136C342.488 26.1926 342.23 27.7333 340.974 27.7333C339.621 27.7333 338.848 26.9629 338.397 25.8074C338.204 25.2938 338.075 24.1062 338.075 23.1111C338.075 22.1802 338.301 20.8 338.623 19.3234C339.364 15.7284 340.233 14.1555 341.715 14.1555C342.875 14.1555 343.809 15.1827 343.809 16.3062C343.809 17.4938 342.295 19.3876 341.844 23.1111V23.1753Z" fill="#BB8BCA"/>
<path d="M362.974 26.1284C361.621 27.3481 360.3 27.7333 359.044 27.7333C356.564 27.7333 354.599 25.9358 354.599 22.758C354.599 17.7185 358.915 12.8395 363.457 12.8395C365.518 12.8395 366.968 14.0592 366.968 15.3111C366.968 15.4716 366.935 15.5679 366.935 15.5679C366.935 15.5679 367.096 15.5358 367.257 15.5358C368.063 15.5358 368.675 16.274 368.675 17.237C368.675 19.3555 367.096 21.9234 366.195 23.2716C366.323 23.9777 366.613 24.2987 367 24.2987C367.547 24.2987 368.578 24.1382 371.219 20.4148C371.38 20.1901 371.606 20.0617 371.799 20.0617C372.057 20.0617 372.314 20.2864 372.314 20.6395C372.314 20.8321 372.282 21.0247 372.121 21.2815C369.222 26.4815 367.322 27.5728 365.518 27.5728C364.359 27.5728 363.521 27.0271 363.006 26.0963L362.974 26.1284ZM362.426 24.1061V23.6568C362.426 21.6666 363.07 19.3876 364.133 17.7185C363.714 17.6543 363.328 17.4938 363.328 17.2691C363.328 16.916 363.65 16.7234 363.65 16.1136C363.65 15.4074 363.296 14.9901 362.651 14.9901C361.17 14.9901 358.818 17.7506 358.818 21.6666C358.818 23.6568 359.656 24.7802 360.912 24.7802C361.556 24.7802 362.072 24.5234 362.458 24.1382L362.426 24.1061Z" fill="#BB8BCA"/>
<path d="M384.715 16.7555C386.455 14.5728 388.516 12.8716 390.577 12.8716C391.673 12.8716 392.961 13.5136 392.961 15.5037C392.961 18.5852 390.481 21.6345 390.481 23.4C390.481 23.9778 390.803 24.3308 391.125 24.3308C391.673 24.3308 392.703 24.2024 395.344 20.479C395.506 20.2543 395.731 20.1259 395.924 20.1259C396.182 20.1259 396.44 20.3506 396.44 20.7037C396.44 20.8963 396.407 21.0889 396.246 21.3457C393.347 26.5457 391.222 27.7654 389.321 27.7654C387.421 27.7654 386.229 26.4494 386.229 24.4592C386.229 21.7629 387.968 18.8099 387.968 17.7185C387.968 17.3654 387.807 17.0765 387.389 17.0765C386.809 17.0765 385.714 17.879 384.683 19.195C384.361 23.4642 382.557 27.5728 380.335 27.5728C379.143 27.5728 378.434 26.642 378.434 25.3901C378.434 24.1382 379.207 22.1481 380.431 20.5111C380.592 19.7728 380.657 19.1629 380.657 18.7136C380.657 17.7185 380.431 17.3654 380.109 17.3654C379.111 17.3654 377.081 20.4148 375.729 23.9778C374.891 26.2568 374.634 27.7975 373.377 27.7975C372.025 27.7975 371.251 27.0271 370.801 25.8716C370.607 25.358 370.478 24.1703 370.478 23.1753C370.478 22.2444 370.704 20.8642 371.026 19.3876C371.767 15.7926 372.637 14.2197 374.118 14.2197C375.278 14.2197 376.212 15.2469 376.212 16.3703C376.212 17.558 374.698 19.4518 374.247 23.1111C375.954 19.0024 378.563 13.4494 381.945 13.4494C382.911 13.4494 384.393 14.0592 384.683 16.7555H384.715Z" fill="#BB8BCA"/>
<path d="M406.747 15.5358H406.94C407.906 15.5358 408.486 16.1777 408.486 17.3333C408.486 19.2592 406.908 21.8913 406.038 23.1753C406.167 24.2024 406.618 24.5234 407.165 24.5234C408.357 24.5234 408.937 23.0469 409.549 23.0469C409.807 23.0469 409.936 23.2716 409.936 23.5926C409.936 24.7481 408.035 27.4444 405.33 27.4444C404.202 27.4444 403.333 26.995 402.785 26.0642C401.432 27.3481 400.112 27.7333 398.855 27.7333C396.375 27.7333 394.41 25.9358 394.41 22.758C394.41 17.7185 398.726 12.8395 403.268 12.8395C405.33 12.8395 406.779 14.0592 406.779 15.3111C406.779 15.3753 406.747 15.4716 406.747 15.5358ZM402.27 24.1061V23.6568C402.27 21.7629 402.914 19.4197 404.009 17.7827C403.59 17.7185 403.171 17.558 403.171 17.2691C403.171 16.916 403.494 16.7234 403.494 16.1136C403.494 15.4074 403.139 14.9901 402.495 14.9901C401.013 14.9901 398.662 17.7506 398.662 21.6666C398.662 23.6568 399.5 24.7802 400.756 24.7802C401.4 24.7802 401.915 24.5234 402.302 24.1382L402.27 24.1061Z" fill="#BB8BCA"/>
</svg>
